<svg xmlns="http://www.w3.org/2000/svg" viewBox="0 -10 56.966 66.966">
  <path
     d="M 53.495246,46.490204 40.776649,33.16183 c 3.270175,-3.916941 5.061923,-8.845254 5.061923,-13.975842 0,-11.9871229 -9.679192,-21.7397762 -21.576024,-21.7397762 -11.896831,0 -21.5760224,9.7526533 -21.5760224,21.7397762 0,11.987125 9.6791914,21.739778 21.5760224,21.739778 4.466237,0 8.722342,-1.357318 12.361185,-3.933954 l 12.81522,13.429511 c 0.535648,0.560508 1.2561,0.869591 2.028146,0.869591 0.730771,0 1.424018,-0.280727 1.950285,-0.791139 1.118201,-1.084153 1.153848,-2.881938 0.07786,-4.009571 z M 24.262548,3.1174581 c 8.793637,0 15.947496,7.2081539 15.947496,16.0685299 0,8.860378 -7.153859,16.068532 -15.947496,16.068532 -8.793636,0 -15.9474947,-7.208154 -15.9474947,-16.068532 0,-8.860376 7.1538587,-16.0685299 15.9474947,-16.0685299 z"/>
  <rect
     width="13.052695"
     height="61.007164"
     x="-43.296112"
     y="-28.348307"
     transform="matrix(-0.70710678,-0.70710678,0.70710678,-0.70710678,0,0)"/>
</svg>
