<svg xmlns="http://www.w3.org/2000/svg" viewBox="0 -10 56.966 66.966">
    <g>
        <path d="M 53.211492,47.057713 40.492895,33.729339 c 3.270175,-3.916941 5.061923,-8.845254 5.061923,-13.975842 0,-11.9871234 -9.679192,-21.7397767 -21.576024,-21.7397767 -11.896831,0 -21.5760227,9.7526533 -21.5760227,21.7397767 0,11.987125 9.6791917,21.739778 21.5760227,21.739778 4.466237,0 8.722342,-1.357318 12.361185,-3.933954 l 12.81522,13.429511 c 0.535648,0.560508 1.2561,0.869591 2.028146,0.869591 0.730771,0 1.424018,-0.280727 1.950285,-0.791139 1.118201,-1.084153 1.153848,-2.881938 0.07786,-4.009571 z M 23.978794,3.6849666 c 8.793637,0 15.947496,7.2081544 15.947496,16.0685304 0,8.860378 -7.153859,16.068532 -15.947496,16.068532 -8.793636,0 -15.947495,-7.208154 -15.947495,-16.068532 0,-8.860376 7.153859,-16.0685304 15.947495,-16.0685304 z"/>
    </g>
</svg>
