<?xml version="1.0" encoding="UTF-8" standalone="no"?>
<!-- Created with Inkscape (http://www.inkscape.org/) -->

<svg
   xmlns:dc="http://purl.org/dc/elements/1.1/"
   xmlns:cc="http://creativecommons.org/ns#"
   xmlns:rdf="http://www.w3.org/1999/02/22-rdf-syntax-ns#"
   xmlns:svg="http://www.w3.org/2000/svg"
   xmlns="http://www.w3.org/2000/svg"
   xmlns:sodipodi="http://sodipodi.sourceforge.net/DTD/sodipodi-0.dtd"
   xmlns:inkscape="http://www.inkscape.org/namespaces/inkscape"
   viewBox="0 0 405.00001 540.00002"
   id="svg2"
   version="1.1"
   inkscape:version="0.91 r13725"
   sodipodi:docname="drawing.svg"
   width="4.5in"
   height="6in">
  <defs
     id="defs4">
    <inkscape:perspective
       sodipodi:type="inkscape:persp3d"
       inkscape:vp_x="0 : 0.50000002 : 1"
       inkscape:vp_y="0 : 0.95024322 : 0"
       inkscape:vp_z="1 : 0.50000002 : 1"
       inkscape:persp3d-origin="0.50000001 : 0.33333335 : 1"
       id="perspective4143" />
  </defs>
  <sodipodi:namedview
     id="base"
     pagecolor="#ffffff"
     bordercolor="#666666"
     borderopacity="1.0"
     inkscape:pageopacity="0.0"
     inkscape:pageshadow="2"
     inkscape:zoom="0.9899495"
     inkscape:cx="-182.97994"
     inkscape:cy="350.45617"
     inkscape:document-units="px"
     inkscape:current-layer="layer1"
     showgrid="true"
     inkscape:window-width="2560"
     inkscape:window-height="1320"
     inkscape:window-x="0"
     inkscape:window-y="0"
     inkscape:window-maximized="1"
     units="in"
     width="7.5in">
    <inkscape:grid
       type="xygrid"
       id="grid4144" />
  </sodipodi:namedview>
  <metadata
     id="metadata7">
    <rdf:RDF>
      <cc:Work
         rdf:about="">
        <dc:format>image/svg+xml</dc:format>
        <dc:type
           rdf:resource="http://purl.org/dc/dcmitype/StillImage" />
        <dc:title />
      </cc:Work>
    </rdf:RDF>
  </metadata>
  <g
     inkscape:label="Layer 1"
     inkscape:groupmode="layer"
     id="layer1"
     style="display:inline"
     transform="translate(0,-512.36218)">
    <rect
       style="opacity:1;fill:#ffffff;fill-opacity:0;stroke:#000000;stroke-opacity:1"
       id="box_1"
       width="237.38585"
       height="201.02036"
       x="78.791893"
       y="541.22498"
       inkscape:label="#rect4138" />
    <rect
       style="opacity:1;fill:#ffffff;fill-opacity:0;stroke:#000000;stroke-opacity:1"
       id="box_2"
       width="186.87823"
       height="250.51788"
       x="101.01526"
       y="792.75299"
       inkscape:label="#rect4140" />
    <rect
       style="fill:#ffffff;fill-opacity:1;stroke:none;stroke-width:0.8993628;stroke-opacity:1"
       id="junction_1"
       width="39.496586"
       height="52.628574"
       x="169.65529"
       y="741.18488"
       inkscape:label="#rect4142" />
    <path
       style="fill:none;fill-rule:evenodd;stroke:#000000;stroke-width:1px;stroke-linecap:butt;stroke-linejoin:miter;stroke-opacity:1"
       d="m 169.2855,741.81912 0,49.99999"
       id="path4146"
       inkscape:connector-curvature="0" />
    <path
       style="fill:none;fill-rule:evenodd;stroke:#000000;stroke-width:1.05405021px;stroke-linecap:butt;stroke-linejoin:miter;stroke-opacity:1"
       d="m 208.52788,792.62749 c 0,-49.99598 0,-49.99598 0,-49.99598 l 0,0"
       id="path4148"
       inkscape:connector-curvature="0" />
    <path
       style="fill:none;fill-rule:evenodd;stroke:#000000;stroke-width:1px;stroke-linecap:butt;stroke-linejoin:miter;stroke-opacity:1"
       d="m 40,862.36218 c 0.808802,-1.65315 2.358634,-3.12029 2.426407,-4.95944 0.07842,-2.12814 -1.34687,-4.04061 -2.020305,-6.06092 -1.346871,-4.04061 -2.693741,-8.08122 -4.040611,-12.12183 -1.010152,-3.03045 -1.872665,-6.11419 -3.030457,-9.09137 -1.201975,-3.09079 -2.99191,-5.94527 -4.04061,-9.09137 -1.317078,-3.95123 -1.934583,-8.10362 -3.030458,-12.12183 -0.924972,-3.39157 -1.981892,-6.74612 -3.030458,-10.10153 -0.635203,-2.03265 -1.459973,-4.00636 -2.020305,-6.06091 -2.614478,-2.07203 -0.432686,-4.76121 -1.010152,-7.07107 -0.182611,-0.73044 -0.886373,-1.27763 -1.010153,-2.02031 -0.332136,-1.99281 0,-4.04061 0,-6.06091 0,-0.73972 -0.200675,-5.05754 0,-6.06092 0.417647,-2.08823 1.602659,-3.97268 2.020305,-6.06091 0.132072,-0.66036 0,-1.34687 0,-2.02031 0,-1.34687 0,-2.69374 0,-4.04061 0,-1.01015 -0.142857,-2.03045 0,-3.03045 0.196339,-1.37437 0.737881,-2.67925 1.010153,-4.04061 0.06604,-0.33018 -0.150585,-0.70899 0,-1.01016 0.212959,-0.42591 0.797194,-0.58423 1.010152,-1.01015 0.150585,-0.30117 -0.106479,-0.69071 0,-1.01015 0.238096,-0.71429 0.730524,-1.32123 1.010153,-2.02031 0.395455,-0.98863 0.533962,-2.07807 1.010152,-3.03045 0.542941,-1.08589 1.725855,-1.85266 2.020306,-3.03046 0.408329,-1.63332 -0.256002,-3.38675 0,-5.05076 0.422208,-2.74436 1.39595,-5.37569 2.020305,-8.08122 0.386067,-1.67297 0.673435,-3.36718 1.010152,-5.05077 0.336718,-1.68358 0.797194,-3.34709 1.010153,-5.05076 0.208823,-1.67059 0,-3.36718 0,-5.05076 0,-0.33672 0.307311,-0.87254 0,-1.01016 -0.420014,-0.18808 -0.876486,0.28094 -1.314729,0.42141 2.83593,-4.50258 5.998394,-8.3887 7.375644,-13.55339 0.884777,-3.31791 1.300812,-6.74389 2.020305,-10.10152 0.290894,-1.35751 0.781914,-2.67118 1.010153,-4.04061 0.110712,-0.66428 -0.163332,-1.36698 0,-2.02031 0.18261,-0.73044 0.827541,-1.28986 1.010152,-2.0203 0.163332,-0.65333 -0.212959,-1.38143 0,-2.02031 0.356522,-1.06956 1.640698,-0.66031 1.010153,-2.0203 C 41.743495,675.11249 40.808802,673.76993 40,672.36218"
       id="line_3"
       inkscape:connector-curvature="0"
       inkscape:label="#path4140" />
    <path
       style="fill:none;fill-rule:evenodd;stroke:#000000;stroke-width:1px;stroke-linecap:butt;stroke-linejoin:miter;stroke-opacity:1"
       d="m 70,672.36218 c -0.77326,2.08119 -1.972268,4.05073 -2.31978,6.24356 -0.11785,0.74364 0.827542,1.28986 1.010153,2.02031 0.163332,0.65332 0,1.34687 0,2.0203 0.336717,0.67344 0.803308,1.29635 1.010152,2.02031 0.471677,1.65086 0.407299,3.44315 1.010153,5.05076 0.426282,1.13675 1.417966,1.97636 2.020305,3.03046 0.747109,1.30744 1.34687,2.69374 2.020305,4.04061 2.996406,5.99281 2.084766,3.81704 5.050763,12.12183 0.02336,0.0654 4.034979,12.10963 4.04061,12.12183 1.137618,2.46484 2.98715,4.5691 4.04061,7.07107 1.652803,3.9254 2.633589,8.10177 4.04061,12.12183 1.900781,5.4308 4.04061,10.77496 6.060915,16.16244 1.010153,2.69374 1.961998,5.41007 3.030454,8.08122 0.95238,2.38095 2.21954,4.63829 3.03046,7.07106 0.54294,1.62883 0.62409,3.37781 1.01015,5.05077 0.36158,1.56683 2.75892,10.41661 3.03046,13.13198 0.16752,1.67523 -0.16752,3.37553 0,5.05076 0.17084,1.70841 0.72789,3.3572 1.01015,5.05077 0.39143,2.34855 0.61873,4.72251 1.01016,7.07106 0.28226,1.69357 0.79719,3.3471 1.01015,5.05077 0.25059,2.0047 0,4.04061 0,6.06091 0,1.01015 0,2.02031 0,3.03046 0,1.01015 0.16607,2.03405 0,3.03046 -0.17505,1.0503 -0.7519,1.99745 -1.01015,3.03045 -0.20203,0.80813 0.40406,2.42437 0,3.03046 -0.41765,0.62647 -1.39384,0.59251 -2.02031,1.01015 -0.39621,0.26415 -0.58423,0.7972 -1.01015,1.01016 -0.30117,0.15058 -0.67344,0 -1.01015,0 -0.67344,0 -1.35995,-0.13207 -2.02031,0 -1.04412,0.20882 -1.98634,0.80133 -3.03046,1.01015 -0.66035,0.13207 -1.346866,0 -2.020301,0 -4.04061,0 -8.081221,0 -12.121831,0 -1.34687,0 -2.69374,0 -4.04061,0 -0.673435,0 -1.359948,0.13207 -2.020305,0 -1.044117,-0.20882 -1.986341,-0.80133 -3.030458,-1.01015 -0.660357,-0.13207 -1.366977,0.16333 -2.020305,0 -1.033002,-0.25825 -2.277534,-1.76308 -3.030457,-1.01016 -0.238095,0.2381 0,0.67344 0,1.01016 0,1.68358 0,3.36717 0,5.05076 0,0.33672 0,0.67343 0,1.01015 0,0.33672 0.185027,0.72883 0,1.01015 -0.762548,1.15942 -1.820655,2.09479 -2.730983,3.14219"
       id="line_4"
       inkscape:connector-curvature="0"
       inkscape:label="#path4142" />
    <path
       style="fill:none;fill-rule:evenodd;stroke:#000000;stroke-width:1px;stroke-linecap:butt;stroke-linejoin:miter;stroke-opacity:1"
       d="m 270,772.36218 c 0.91373,-0.61085 1.66515,-1.60853 2.74119,-1.83256 1.97789,-0.41179 4.04409,-0.11863 6.06091,0 6.18786,-0.4951 12.10003,1.58583 18.18275,2.02031 2.35103,0.16793 4.72574,-0.23454 7.07106,0 1.05951,0.10595 1.99746,0.7519 3.03046,1.01015 3.32697,0.83174 7.80943,1.4199 11.11168,2.0203 2.86207,0.52038 8.36402,1.79134 11.11168,2.02031 2.01332,0.16778 4.04061,0 6.06091,0 2.35703,0 4.71405,0 7.07107,0 1.68359,0 3.36718,0 5.05076,0 0.33672,0 0.70899,-0.15059 1.01016,0 0.42591,0.21296 0.58423,0.79719 1.01015,1.01015 0.43142,0.21571 4.65143,0 5.05076,0 1.68359,0 3.36718,0 5.05076,0 1.34687,0 2.70198,0.14874 4.04061,0 1.70643,-0.1896 3.34434,-0.82055 5.05077,-1.01015 1.33863,-0.14874 2.71989,0.26414 4.04061,0 0.46694,-0.0934 0.58423,-0.79719 1.01015,-1.01015 0.30117,-0.15059 0.77206,0.23809 1.01015,0 0.2381,-0.2381 -0.23809,-0.77206 0,-1.01016 0.2381,-0.23809 0.77206,0.2381 1.01015,0 0.2381,-0.23809 -0.26782,-0.80606 0,-1.01015 1.26352,-0.96282 2.81551,-1.47203 4.22326,-2.20805"
       id="line_1"
       inkscape:connector-curvature="0"
       inkscape:label="#path4144" />
    <path
       style="fill:none;fill-rule:evenodd;stroke:#000000;stroke-width:1px;stroke-linecap:butt;stroke-linejoin:miter;stroke-opacity:1"
       d="m 380,802.36218 c 0.27584,-0.84604 -0.0185,-2.81397 0.82751,-2.53813 0.84604,0.27583 0.0624,2.53813 -0.82751,2.53813 -2.56165,0 -4.77845,-1.87849 -7.25371,-2.53813 -4.74446,-1.26438 -14.54333,-1.65637 -18.18275,-2.02031 -5.40246,-0.54025 -10.74903,-1.60389 -16.16244,-2.0203 -1.67863,-0.12913 -3.36717,0 -5.05076,0 -2.02031,0 -4.04061,0 -6.06092,0 -1.01015,0 -2.0203,0 -3.03046,0 -0.67343,0 -1.36697,0.16333 -2.0203,0 -0.73044,-0.18262 -1.30602,-0.77206 -2.02031,-1.01016 -1.31707,-0.43902 -2.72353,-0.57112 -4.04061,-1.01015 -0.71428,-0.23809 -1.28986,-0.82754 -2.0203,-1.01015 -0.65333,-0.16333 -1.35995,0.13207 -2.02031,0 -2.08823,-0.41765 -3.97268,-1.60266 -6.06091,-2.02031 -0.66036,-0.13207 -1.34687,0 -2.02031,0 -0.67343,-0.33671 -1.30602,-0.77205 -2.0203,-1.01015 -0.31944,-0.10648 -0.70898,0.15058 -1.01015,0 -0.42592,-0.21296 -0.58424,-0.79719 -1.01016,-1.01015 -0.30117,-0.15059 -0.67343,0 -1.01015,0 -3.08003,0 -0.0137,1.02381 -1.01015,2.0203 -0.2381,0.2381 -0.67344,0 -1.01015,0 -0.33672,0 -1.01016,0.33672 -1.01016,0 0,-0.33671 1.34687,0 1.01016,0 -0.67344,0 -1.38143,0.21296 -2.02031,0 -0.45175,-0.15058 -0.5584,-0.85957 -1.01015,-1.01015 -0.63888,-0.21296 -1.36698,0.16333 -2.02031,0 -1.46088,-0.36522 -2.61204,-1.54411 -4.04061,-2.0203 -0.31943,-0.10648 -0.69071,0.10647 -1.01015,0 -0.71428,-0.2381 -1.30602,-0.77206 -2.0203,-1.01016 -0.31944,-0.10648 -0.77206,0.2381 -1.01016,0 -0.23809,-0.23809 0.2381,-0.77205 0,-1.01015 -0.47619,-0.47619 -1.54411,0.47619 -2.0203,0 -0.2381,-0.2381 0.23809,-0.77206 0,-1.01015 -0.2381,-0.2381 -0.67344,0 -1.01015,0 -0.33672,0 -0.67344,0 -1.01016,0 -1.68358,0 -3.36717,0 -5.05076,0 -0.33672,0 -0.67343,0 -1.01015,0 -0.33672,0 -0.72342,0.17653 -1.01015,0 -1.01745,-0.62641 -1.82746,-1.53972 -2.74119,-2.30958"
       id="line_2"
       inkscape:connector-curvature="0"
       inkscape:label="#path4147" />
    <rect
       style="opacity:1;fill:#ffffff;fill-opacity:0;stroke:#000000;stroke-opacity:1"
       id="hm_1"
       width="110"
       height="140"
       x="137.87816"
       y="843.16925"
       inkscape:label="#rect4151" />
    <rect
       style="opacity:1;fill:#ffffff;fill-opacity:0;stroke:#000000;stroke-width:1.05547857;stroke-opacity:1"
       id="report_1"
       width="78.025742"
       height="99.944519"
       x="323.96683"
       y="552.28839"
       inkscape:label="#rect4145" />
  </g>
</svg>
