<?xml version="1.0" encoding="UTF-8" standalone="no"?>
<!-- Created with Inkscape (http://www.inkscape.org/) -->

<svg
   xmlns:dc="http://purl.org/dc/elements/1.1/"
   xmlns:cc="http://creativecommons.org/ns#"
   xmlns:rdf="http://www.w3.org/1999/02/22-rdf-syntax-ns#"
   xmlns:svg="http://www.w3.org/2000/svg"
   xmlns="http://www.w3.org/2000/svg"
   xmlns:sodipodi="http://sodipodi.sourceforge.net/DTD/sodipodi-0.dtd"
   xmlns:inkscape="http://www.inkscape.org/namespaces/inkscape"
   viewBox="0 0 174.74474 297.4803"
   id="svg2"
   version="1.1"
   inkscape:version="0.91 r13725"
   sodipodi:docname="example_1.svg"
   width="174.74472"
   height="297.48029">
  <defs
     id="defs4" />
  <sodipodi:namedview
     id="base"
     pagecolor="#ffffff"
     bordercolor="#666666"
     borderopacity="1.0"
     inkscape:pageopacity="0.0"
     inkscape:pageshadow="2"
     inkscape:zoom="1.1552846"
     inkscape:cx="28.588821"
     inkscape:cy="140.58058"
     inkscape:document-units="px"
     inkscape:current-layer="layer1"
     showgrid="true"
     inkscape:window-width="1280"
     inkscape:window-height="680"
     inkscape:window-x="0"
     inkscape:window-y="0"
     inkscape:window-maximized="1"
     units="px"
     width="7.5in"
     fit-margin-top="0"
     fit-margin-left="0"
     fit-margin-right="0"
     fit-margin-bottom="0">
    <inkscape:grid
       type="xygrid"
       id="grid4144"
       originx="-119.50001"
       originy="-99.500084" />
  </sodipodi:namedview>
  <metadata
     id="metadata7">
    <rdf:RDF>
      <cc:Work
         rdf:about="">
        <dc:format>image/svg+xml</dc:format>
        <dc:type
           rdf:resource="http://purl.org/dc/dcmitype/StillImage" />
        <dc:title />
      </cc:Work>
    </rdf:RDF>
  </metadata>
  <g
     inkscape:label="Layer 1"
     inkscape:groupmode="layer"
     id="layer1"
     style="display:inline"
     transform="translate(-119.5,-655.38187)">
    <path
       style="fill:#8d8771;fill-opacity:1;fill-rule:evenodd;stroke:#000000;stroke-width:1px;stroke-linecap:butt;stroke-linejoin:miter;stroke-opacity:1"
       d="m 150,702.36218 c 0,-40 0,-40 0,-40 l 50,0 0,10 -40,0 0,30 z"
       id="x"
       inkscape:connector-curvature="0"
       inkscape:label="#path4158" />
    <path
       style="fill:#999999;fill-rule:evenodd;stroke:#000000;stroke-width:1px;stroke-linecap:butt;stroke-linejoin:miter;stroke-opacity:1"
       d="m 120,902.36218 0,50 80,0 0,-50 0,0"
       id="path4160"
       inkscape:connector-curvature="0" />
    <path
       style="fill:none;fill-rule:evenodd;stroke:#000000;stroke-width:1px;stroke-linecap:butt;stroke-linejoin:miter;stroke-opacity:1"
       d="m 120,892.36218 0,-160 c 0,-30 10,-40 40.06128,-40.29586 C 190,692.36218 200,702.36218 200,732.36218 l 0,160 c 0,30 -10,40 -40,40 -30,0 -40,-15 -40,-40 z"
       id="tank-1"
       inkscape:connector-curvature="0"
       sodipodi:nodetypes="ccccccc"
       inkscape:label="#path4152">
      <title
         id="title4164">tank-1</title>
    </path>
    <path
       style="fill:#8d8771;fill-opacity:1;fill-rule:evenodd;stroke:#000000;stroke-width:1px;stroke-linecap:butt;stroke-linejoin:miter;stroke-opacity:1"
       d="m 150.00001,887.36219 c 0,-20 0,-20 0,-20 l 120,0 0,10 -110,0 0,10 z"
       id="y"
       inkscape:connector-curvature="0"
       inkscape:label="#path4193" />
    <text
       xml:space="preserve"
       style="font-style:normal;font-weight:normal;font-size:46.03671646px;line-height:125%;font-family:sans-serif;letter-spacing:0px;word-spacing:0px;fill:#000000;fill-opacity:1;stroke:none;stroke-width:1px;stroke-linecap:butt;stroke-linejoin:miter;stroke-opacity:1"
       x="257.75067"
       y="745.51251"
       id="text3342"
       sodipodi:linespacing="125%"
       transform="scale(0.83716434,1.1945086)"><tspan
         sodipodi:role="line"
         x="257.75067"
         y="745.51251"
         id="tspan3346"
         style="font-size:11.18138409px">Steam</tspan><tspan
         sodipodi:role="line"
         x="257.75067"
         y="759.48926"
         id="tspan3350"
         style="font-size:11.18138409px">Discharge</tspan></text>
    <text
       xml:space="preserve"
       style="font-style:normal;font-weight:normal;font-size:46.03671646px;line-height:125%;font-family:sans-serif;letter-spacing:0px;word-spacing:0px;display:inline;fill:#000000;fill-opacity:1;stroke:none;stroke-width:1px;stroke-linecap:butt;stroke-linejoin:miter;stroke-opacity:1"
       x="209.94467"
       y="577.49255"
       id="text3342-1"
       sodipodi:linespacing="125%"
       transform="scale(0.83716434,1.1945086)"><tspan
         sodipodi:role="line"
         x="209.94467"
         y="577.49255"
         id="tspan3350-2"
         style="font-size:11.18138409px">Relief Valve</tspan></text>
    <ellipse
       style="fill:#000000;fill-opacity:0;stroke:#000000;stroke-width:0.95762378;stroke-opacity:1"
       id="relief-valve"
       cx="174.92387"
       cy="667.99298"
       rx="7.5211887"
       ry="7.5211878"
       inkscape:label="#path4175" />
    <ellipse
       style="display:inline;fill:#8d8771;fill-opacity:1;stroke:#000000;stroke-width:0.95762378;stroke-opacity:1"
       id="steam-discharge"
       cx="211.59012"
       cy="872.99298"
       rx="7.5211892"
       ry="7.5211878"
       inkscape:label="#path4175-3" />
    <g
       id="steam-toggle"
       inkscape:label="#g4221"
       style="stroke:#b9b9b9;stroke-opacity:1;stroke-width:1.00000003;stroke-miterlimit:4;stroke-dasharray:none">
      <path
         d="m 164.27885,895.17871 c -0.29676,-0.35997 0.33883,-0.57763 0.5983,-0.49324 0.70316,0.22869 0.73009,1.16013 0.38818,1.68984 -0.61158,0.94751 -1.96177,0.93546 -2.78137,0.28312 -1.2028,-0.95733 -1.14811,-2.77472 -0.17807,-3.87291 1.29293,-1.46372 3.59174,-1.36395 4.96445,-0.073 1.72742,1.62452 1.58144,4.41071 -0.032,6.05599 -1.95415,1.99265 -5.23078,1.79989 -7.14752,-0.13711 -2.25882,-2.28268 -2.01895,-6.05154 0.24216,-8.23906 2.61055,-2.52558 6.87277,-2.23841 9.33061,0.34722 2.79274,2.93796 2.45815,7.69431 -0.45229,10.42214 -3.26506,3.06021 -8.51609,2.6781 -11.51367,-0.55734 -2.91253,-3.14364 -3.00612,-8.05812 -0.41873,-11.42564"
         sodipodi:t0="0"
         sodipodi:argument="-21.109798"
         sodipodi:radius="9.2195444"
         sodipodi:revolution="2.9725101"
         sodipodi:expansion="1"
         sodipodi:cy="895.17871"
         sodipodi:cx="164.27885"
         id="path4217"
         style="fill:none;fill-rule:evenodd;stroke:#b9b9b9;stroke-width:1.00000003;stroke-linecap:butt;stroke-linejoin:miter;stroke-opacity:1;stroke-miterlimit:4;stroke-dasharray:none"
         sodipodi:type="spiral" />
      <path
         transform="scale(-1,1)"
         d="m -144.55293,895.09662 c -0.42255,-0.22782 0.0986,-0.68199 0.37865,-0.70231 0.75885,-0.0551 1.14613,0.82209 1.02596,1.45961 -0.21494,1.14036 -1.50627,1.65306 -2.54056,1.34962 -1.51787,-0.4453 -2.17133,-2.1984 -1.67329,-3.62152 0.66382,-1.8968 2.89318,-2.6942 4.70249,-1.99694 2.27682,0.87742 3.2194,3.58917 2.3206,5.78344 -1.08857,2.65755 -4.28585,3.74596 -6.8644,2.64426 -3.03874,-1.29832 -4.27336,-4.98294 -2.96792,-7.94536 1.50718,-3.42023 5.68031,-4.80132 9.02631,-3.29158 3.80195,1.71546 5.32968,6.37789 3.61524,10.10728 -1.92333,4.18381 -7.0756,5.85831 -11.18823,3.93889 -4.5658,-2.13091 -6.38717,-7.77342 -4.26256,-12.26919 0.18347,-0.38823 0.39313,-0.76406 0.62691,-1.12423"
         sodipodi:t0="0"
         sodipodi:argument="-21.496674"
         sodipodi:radius="9.6425667"
         sodipodi:revolution="3.0213075"
         sodipodi:expansion="1"
         sodipodi:cy="895.09662"
         sodipodi:cx="-144.55293"
         id="path4219"
         style="fill:none;fill-rule:evenodd;stroke:#b9b9b9;stroke-width:1.00000003;stroke-linecap:butt;stroke-linejoin:miter;stroke-opacity:1;stroke-miterlimit:4;stroke-dasharray:none"
         sodipodi:type="spiral" />
    </g>
    <g
       id="relief-toggle"
       inkscape:label="#g4251"
       style="stroke:#b9b9b9;stroke-opacity:1">
      <path
         transform="matrix(0.63575951,0,0,0.50083203,73.629969,331.14656)"
         d="m 208.36635,656.95709 c -0.18024,0.52662 -0.7988,0.0169 -0.87528,-0.29956 -0.20726,-0.8575 0.72238,-1.46723 1.4744,-1.451 1.3452,0.029 2.17714,1.40856 2.02672,2.64925 -0.22075,1.82077 -2.10166,2.90151 -3.82409,2.60243 -2.29573,-0.39862 -3.63166,-2.79692 -3.17815,-4.99893 0.57069,-2.77102 3.49313,-4.36471 6.17378,-3.75387 3.24663,0.73981 5.09942,4.18986 4.32958,7.34863 -0.90724,3.72249 -4.8869,5.83519 -8.52347,4.90529 -4.19855,-1.0736 -6.57165,-5.58416 -5.48101,-9.69831 1.23925,-4.67475 6.28158,-7.3086 10.87315,-6.05673 5.15105,1.40441 8.04591,6.97911 6.63245,12.048 -1.56921,5.62743 -7.67672,8.78348 -13.22284,7.20816 -0.47899,-0.13605 -0.94878,-0.30441 -1.40524,-0.50336"
         sodipodi:t0="0"
         sodipodi:argument="-16.949007"
         sodipodi:radius="11.18034"
         sodipodi:revolution="3.0213101"
         sodipodi:expansion="1"
         sodipodi:cy="656.95709"
         sodipodi:cx="208.36635"
         id="path4247"
         style="fill:none;fill-rule:evenodd;stroke:#b9b9b9;stroke-width:1px;stroke-linecap:butt;stroke-linejoin:miter;stroke-opacity:1"
         sodipodi:type="spiral" />
      <path
         transform="matrix(0.59302658,0,0,-0.49841788,73.734655,342.79804)"
         d="m 225,-664.23615 c 0.31316,0.46017 -0.46579,0.64916 -0.76482,0.52049 -0.81035,-0.34868 -0.74035,-1.45824 -0.27615,-2.05012 0.83034,-1.05874 2.43312,-0.89658 3.33543,-0.0318 1.32417,1.26905 1.0602,3.42223 -0.21251,4.62073 -1.69634,1.59741 -4.41653,1.22717 -5.90604,-0.45684 -1.8744,-2.11916 -1.39589,-5.41333 0.70117,-7.19135 2.53983,-2.15341 6.41154,-1.56563 8.47665,0.94551 2.43366,2.95929 1.73601,7.41064 -1.18984,9.76195 -3.37801,2.71469 -8.41032,1.90683 -11.04726,-1.43417 -2.99625,-3.79625 -2.07794,-9.41042 1.6785,-12.33256 4.21416,-3.27819 10.41084,-2.24927 13.61787,1.92283 3.56042,4.63183 2.42077,11.41147 -2.16716,14.90318 -3.88997,2.96052 -9.37648,2.99488 -13.39182,0.25651"
         sodipodi:t0="0"
         sodipodi:argument="-17.876303"
         sodipodi:radius="11.835193"
         sodipodi:revolution="3.1982739"
         sodipodi:expansion="1"
         sodipodi:cy="-664.23615"
         sodipodi:cx="225"
         id="path4249"
         style="fill:none;fill-rule:evenodd;stroke:#b9b9b9;stroke-width:1px;stroke-linecap:butt;stroke-linejoin:miter;stroke-opacity:1"
         sodipodi:type="spiral" />
    </g>
    <rect
       style="opacity:0.63999999;fill:#800000;fill-opacity:0;stroke:#b9b9b9;stroke-width:0.77074826;stroke-miterlimit:4;stroke-dasharray:none;stroke-opacity:1"
       id="disch-report"
       width="85.035728"
       height="37.723972"
       x="209.88538"
       y="824.27435"
       ry="0"
       inkscape:label="#rect4155" />
    <rect
       style="opacity:0.63999999;fill:#800000;fill-opacity:0;stroke:#b9b9b9;stroke-width:1.06491363;stroke-miterlimit:4;stroke-dasharray:none;stroke-opacity:1"
       id="tank-1-report"
       width="79.456551"
       height="69.935089"
       x="210.51099"
       y="702.39471"
       inkscape:label="#rect4187" />
  </g>
</svg>
