<?xml version="1.0" encoding="UTF-8" standalone="no"?>
<!-- Created with Inkscape (http://www.inkscape.org/) -->

<svg
   xmlns:dc="http://purl.org/dc/elements/1.1/"
   xmlns:cc="http://creativecommons.org/ns#"
   xmlns:rdf="http://www.w3.org/1999/02/22-rdf-syntax-ns#"
   xmlns:svg="http://www.w3.org/2000/svg"
   xmlns="http://www.w3.org/2000/svg"
   xmlns:sodipodi="http://sodipodi.sourceforge.net/DTD/sodipodi-0.dtd"
   xmlns:inkscape="http://www.inkscape.org/namespaces/inkscape"
   viewBox="0 0 512.34417 397.48033"
   id="svg2"
   version="1.1"
   inkscape:version="0.91 r13725"
   sodipodi:docname="example_1.svg"
   width="512.34412"
   height="397.48032">
  <defs
     id="defs4" />
  <sodipodi:namedview
     id="base"
     pagecolor="#ffffff"
     bordercolor="#666666"
     borderopacity="1.0"
     inkscape:pageopacity="0.0"
     inkscape:pageshadow="2"
     inkscape:zoom="1.6338192"
     inkscape:cx="241.73029"
     inkscape:cy="188.67867"
     inkscape:document-units="px"
     inkscape:current-layer="layer1"
     showgrid="true"
     inkscape:window-width="1440"
     inkscape:window-height="897"
     inkscape:window-x="-8"
     inkscape:window-y="-8"
     inkscape:window-maximized="1"
     units="px"
     width="7.5in"
     fit-margin-top="50"
     fit-margin-left="50"
     fit-margin-right="50"
     fit-margin-bottom="50">
    <inkscape:grid
       type="xygrid"
       id="grid4144"
       originx="167.03766"
       originy="-49.500052" />
  </sodipodi:namedview>
  <metadata
     id="metadata7">
    <rdf:RDF>
      <cc:Work
         rdf:about="">
        <dc:format>image/svg+xml</dc:format>
        <dc:type
           rdf:resource="http://purl.org/dc/dcmitype/StillImage" />
        <dc:title />
      </cc:Work>
    </rdf:RDF>
  </metadata>
  <g
     inkscape:label="Layer 1"
     inkscape:groupmode="layer"
     id="layer1"
     style="display:inline"
     transform="translate(167.03765,-605.38186)">
    <path
       style="fill:#c7c7c7;fill-opacity:1;fill-rule:evenodd;stroke:#434343;stroke-width:0.8066296px;stroke-linecap:butt;stroke-linejoin:miter;stroke-opacity:1"
       d="m 199.49745,670.02603 0,-4.22574 c 1.33794,-1.98202 3.29931,-2.51007 6.03347,-1.23469 1.81066,-2.19217 4.24278,-1.27722 6.48214,-1.32632 1.02511,-2.97694 3.92175,-3.70816 7.25281,-3.9181 -0.26471,-1.94705 1.11977,-2.24498 2.68847,-2.35878 -1.24648,-9.70526 1.70693,-16.71038 13.45523,-18.06168 3.44705,-7.73439 9.19856,-11.06857 17.76451,-9.03021 3.85692,3.06002 8.56138,5.17885 8.42865,12.67202 3.08576,1.70542 6.18827,3.38732 7.00442,8.27064 -0.4244,3.82744 -1.29038,7.37405 -5.5168,8.78372 1.12858,2.58358 0.48185,4.68589 -0.35583,6.94154 5.3374,5.5078 6.65236,11.01541 -1.12945,16.5231 0.59727,2.51643 0.91494,5.03287 -0.11669,7.54926 -2.0106,5.7019 -6.25109,8.83035 -12.54017,9.59525 -5.78625,0.15562 -8.73127,-2.47128 -11.33528,-5.43228 -9.48871,-0.92259 -13.15201,-6.77439 -14.10991,-14.91561 -1.74861,-1.16304 -3.02166,-2.64302 -3.78277,-4.46438 -2.97095,0.32081 -5.82712,0.008 -8.14628,-3.25221 -2.36366,0.71571 -4.57806,0.52947 -6.56161,-1.04824 -1.87626,-0.10847 -3.81768,0.1772 -5.39849,-1.70257"
       id="relief-toggle"
       inkscape:connector-curvature="0"
       sodipodi:nodetypes="ccccccccccccccccccccc"
       inkscape:label="#path4159" />
    <path
       style="fill:#8d8771;fill-opacity:1;fill-rule:evenodd;stroke:#000000;stroke-width:1.00000009;stroke-linecap:round;stroke-linejoin:round;stroke-opacity:1;stroke-miterlimit:4;stroke-dasharray:none"
       d="m 150,702.36218 c 0,-40 0,-40 0,-40 l 50,0 0,10 -40,0 0,30 z"
       id="x"
       inkscape:connector-curvature="0"
       inkscape:label="#path4158" />
    <path
       style="fill:none;fill-rule:evenodd;stroke:#5d0000;stroke-width:5.00000045;stroke-linecap:butt;stroke-linejoin:round;stroke-opacity:1;stroke-miterlimit:4;stroke-dasharray:none"
       d="m 120,892.36218 0,-160 c 0,-30 10,-40 40.06128,-40.29586 C 190,692.36218 200,702.36218 200,732.36218 l 0,160 c 0,30 -10,40 -40,40 -30,0 -40,-15 -40,-40 z"
       id="tank-1"
       inkscape:connector-curvature="0"
       sodipodi:nodetypes="ccccccc"
       inkscape:label="#path4152">
      <title
         id="title4164">tank-1</title>
    </path>
    <text
       xml:space="preserve"
       style="font-style:normal;font-weight:normal;font-size:46.03671646px;line-height:125%;font-family:sans-serif;letter-spacing:0px;word-spacing:0px;fill:#000000;fill-opacity:1;stroke:none;stroke-width:1px;stroke-linecap:butt;stroke-linejoin:miter;stroke-opacity:1"
       x="257.75067"
       y="745.51251"
       id="text3342"
       sodipodi:linespacing="125%"
       transform="scale(0.83716434,1.1945086)"><tspan
         sodipodi:role="line"
         x="257.75067"
         y="745.51251"
         id="tspan3346"
         style="font-size:11.18138409px">Steam</tspan><tspan
         sodipodi:role="line"
         x="257.75067"
         y="759.48926"
         id="tspan3350"
         style="font-size:11.18138409px">Discharge</tspan></text>
    <text
       xml:space="preserve"
       style="font-style:normal;font-weight:normal;font-size:46.03671646px;line-height:125%;font-family:sans-serif;letter-spacing:0px;word-spacing:0px;display:inline;fill:#000000;fill-opacity:1;stroke:none;stroke-width:1px;stroke-linecap:butt;stroke-linejoin:miter;stroke-opacity:1"
       x="168.58659"
       y="547.05774"
       id="text3342-1"
       sodipodi:linespacing="125%"
       transform="scale(0.83716434,1.1945086)"><tspan
         sodipodi:role="line"
         x="168.58659"
         y="547.05774"
         id="tspan3350-2"
         style="font-size:11.18138409px">Relief Valve</tspan></text>
    <ellipse
       style="fill:#000000;fill-opacity:0;stroke:#000000;stroke-width:0.95762378;stroke-opacity:1"
       id="relief-valve"
       cx="174.92387"
       cy="667.99298"
       rx="7.5211887"
       ry="7.5211878"
       inkscape:label="#path4175" />
    <rect
       style="opacity:0.63999999;fill:#800000;fill-opacity:0;stroke:#b9b9b9;stroke-width:0.77074826;stroke-miterlimit:4;stroke-dasharray:none;stroke-opacity:1"
       id="disch-report"
       width="85.035728"
       height="37.723972"
       x="209.88538"
       y="824.27435"
       ry="0"
       inkscape:label="#rect4155" />
    <rect
       style="opacity:0.63999999;fill:#800000;fill-opacity:0;stroke:#b9b9b9;stroke-width:1.06491363;stroke-miterlimit:4;stroke-dasharray:none;stroke-opacity:1"
       id="tank-1-report"
       width="79.456551"
       height="69.935089"
       x="210.51099"
       y="702.39471"
       inkscape:label="#rect4187" />
    <rect
       style="opacity:0.63999999;fill:none;fill-opacity:1;stroke:#000000;stroke-width:0.75047737;stroke-miterlimit:4;stroke-dasharray:none;stroke-dashoffset:0;stroke-opacity:1"
       id="color-scale-water"
       width="227.80127"
       height="40.83453"
       x="-116.66243"
       y="849.81989"
       inkscape:label="#rect4154" />
    <rect
       inkscape:label="#rect4154"
       y="898.73376"
       x="-116.66704"
       height="43.904095"
       width="230.25877"
       id="color-scale-gas"
       style="opacity:0.63999999;fill:none;fill-opacity:1;stroke:#000000;stroke-width:0.74122781;stroke-miterlimit:4;stroke-dasharray:none;stroke-dashoffset:0;stroke-opacity:1" />
    <path
       style="fill:#8d8771;fill-opacity:1;fill-rule:evenodd;stroke:#000000;stroke-width:1px;stroke-linecap:butt;stroke-linejoin:miter;stroke-opacity:1"
       d="m 152.16398,887.36219 c 0,-20 0,-20 0,-20 l 120,0 0,10 -110,0 0,10 z"
       id="y"
       inkscape:connector-curvature="0"
       inkscape:label="#path4193" />
    <ellipse
       style="display:inline;fill:#8d8771;fill-opacity:1;stroke:#000000;stroke-width:0.95762378;stroke-opacity:1"
       id="steam-discharge"
       cx="209.44791"
       cy="872.22784"
       rx="7.5211892"
       ry="7.5211878"
       inkscape:label="#path4175-3" />
    <g
       id="steam-toggle"
       inkscape:label="#g4357">
      <path
         inkscape:label="#path4285"
         style="display:inline;fill:#e3e3e3;fill-opacity:1;fill-rule:evenodd;stroke:#434343;stroke-width:0.59600008;stroke-linecap:butt;stroke-linejoin:miter;stroke-miterlimit:4;stroke-dasharray:none;stroke-opacity:1"
         d="m 158.66204,887.33719 0.91144,4.4555 0.83158,5.30586 1.92935,6.31991 c 1.47912,0.005 2.14055,3.78684 0.54736,4.32978 1.25615,1.01229 3.4988,1.9341 0.12088,4.21915 4.008,1.20828 2.00993,4.50816 0.41015,5.02807 -0.19637,3.01597 -3.19637,3.01597 -5.03319,1.5895 -2.16015,1.17284 -4.16461,3.04274 -5.90454,-0.31964 -3.25864,1.74611 -5.25864,-0.25389 -4.66804,-3.24881 -1.33604,-1.15835 -1.02281,-3.3177 1.79803,-3.57433 -0.75683,-2.77121 0.2948,-3.68614 2.01878,-4.31476 -0.48973,-0.23648 -0.8156,-1.10606 -0.75557,-1.98197 0.0639,-0.93177 0.5644,-1.87071 1.76891,-2.06236 l 1.70694,-5.80086 0.90561,-5.82488 0.91143,-4.01065 z"
         id="1"
         inkscape:connector-curvature="0"
         sodipodi:nodetypes="ccccccccccccsccccc" />
      <path
         sodipodi:nodetypes="cc"
         inkscape:connector-curvature="0"
         id="path4289"
         d="m 150.78359,915.52618 c 1.11883,0.71296 2.1679,1.00741 3,0"
         style="fill:none;fill-rule:evenodd;stroke:#999696;stroke-width:0.50000006;stroke-linecap:butt;stroke-linejoin:miter;stroke-miterlimit:4;stroke-dasharray:none;stroke-opacity:1" />
      <path
         sodipodi:nodetypes="cc"
         inkscape:connector-curvature="0"
         id="path4291"
         d="m 152.89179,910.06717 c 1.0783,0.89261 2.34621,1.1216 4,0"
         style="fill:none;fill-rule:evenodd;stroke:#575151;stroke-width:0.50000006;stroke-linecap:butt;stroke-linejoin:miter;stroke-miterlimit:4;stroke-dasharray:none;stroke-opacity:1" />
      <path
         sodipodi:nodetypes="cc"
         inkscape:connector-curvature="0"
         id="path4293"
         d="m 155.78359,903.52618 c 1.09529,0.76229 2.18671,1.49364 3,0"
         style="fill:none;fill-rule:evenodd;stroke:#6a6a6a;stroke-width:0.50000006;stroke-linecap:butt;stroke-linejoin:miter;stroke-miterlimit:4;stroke-dasharray:none;stroke-opacity:1" />
      <path
         sodipodi:nodetypes="cc"
         inkscape:connector-curvature="0"
         id="path4295"
         d="m 156.78359,914.52618 c 0.93599,0.10668 1.29534,1.17443 3,0"
         style="fill:none;fill-rule:evenodd;stroke:#7a7171;stroke-width:0.50000006;stroke-linecap:butt;stroke-linejoin:miter;stroke-miterlimit:4;stroke-dasharray:none;stroke-opacity:1" />
      <path
         style="fill:none;fill-rule:evenodd;stroke:#7a7171;stroke-width:0.50000006;stroke-linecap:butt;stroke-linejoin:miter;stroke-miterlimit:4;stroke-dasharray:none;stroke-opacity:1"
         d="m 157.86557,907.81788 c 0.93599,0.10668 1.29534,1.17443 3,0"
         id="path4312"
         inkscape:connector-curvature="0"
         sodipodi:nodetypes="cc" />
      <path
         sodipodi:nodetypes="cc"
         inkscape:connector-curvature="0"
         id="path4314"
         d="m 155.05241,898.29642 c 0.93599,0.10668 1.29534,1.17443 3,0"
         style="fill:none;fill-rule:evenodd;stroke:#7a7171;stroke-width:0.50000006;stroke-linecap:butt;stroke-linejoin:miter;stroke-miterlimit:4;stroke-dasharray:none;stroke-opacity:1" />
    </g>
  </g>
</svg>
